<?xml version="1.0" encoding="UTF-8"?>
<svg id="Layer_1" xmlns="http://www.w3.org/2000/svg" version="1.1" viewBox="0 0 81.1 114.5">
  <!-- Generator: Adobe Illustrator 29.3.1, SVG Export Plug-In . SVG Version: 2.1.0 Build 151)  -->
  <defs>
    <style>
      .st0 {
        fill: #1e325a;
      }
    </style>
  </defs>
  <path class="st0" d="M40.8,2.3c4.1,5.8,8.5,11.5,12.6,17.3,8.7,12.5,20.2,29.7,24.7,44.2,7.5,24.8-13.5,49.1-38.7,48.4-23.5-.7-42.9-23.4-36.7-46.9,3.9-14.9,14.4-29.2,22.5-42.1L40.4,2.3h.4ZM14.3,69.7c-3.7.7-2.5,6.8-2,9.4,2.3,11,11.6,20.1,22.6,22.2s4.7.8,6.3.5c3.6-.7,3.6-6.1,0-6.8s-3.6-.2-5.4-.6c-8.4-1.8-15.5-9-16.9-17.5s.3-8.2-4.6-7.3Z"/>
</svg>